<svg width="140" height="27" viewBox="0 0 530 102.5" xmlns="http://www.w3.org/2000/svg" version="1.1" xml:space="preserve">

 <g>
  <title>Layer 1</title>
  <g id="svg_1" stroke="null" fill="currentColor">
   <path id="svg_2" fill="#0EA4E9" d="m4.25,78.66055l0,7.83945c0,6.48086 15.78906,11.75 35.25,11.75s35.25,-5.26914 35.25,-11.75l0,-7.83945c-7.58242,5.34258 -21.44375,7.83945 -35.25,7.83945s-27.66758,-2.49688 -35.25,-7.83945zm58.75,-50.91055c19.46094,0 35.25,-5.26914 35.25,-11.75s-15.78906,-11.75 -35.25,-11.75s-35.25,5.26914 -35.25,11.75s15.78906,11.75 35.25,11.75zm-58.75,31.65156l0,9.47344c0,6.48086 15.78906,11.75 35.25,11.75s35.25,-5.26914 35.25,-11.75l0,-9.47344c-7.58242,6.24219 -21.46211,9.47344 -35.25,9.47344s-27.66758,-3.23125 -35.25,-9.47344zm76.375,2.01953c10.51992,-2.03789 17.625,-5.81992 17.625,-10.17109l0,-7.83945c-4.25938,3.01094 -10.51992,5.06719 -17.625,6.33398l0,11.67656zm-41.125,-27.79609c-19.46094,0 -35.25,6.57266 -35.25,14.6875s15.78906,14.6875 35.25,14.6875s35.25,-6.57266 35.25,-14.6875s-15.78906,-14.6875 -35.25,-14.6875zm40.26211,10.33633c11.01563,-1.98281 18.48789,-5.875 18.48789,-10.33633l0,-7.83945c-6.51758,4.6082 -17.7168,7.08672 -29.50352,7.67422c5.41602,2.62539 9.4,6.15039 11.01563,10.50156z" stroke="null"/>
  </g>
  <g stroke="null" id="svg_5">
   <g stroke="null" id="svg_6">
    <title stroke="null">Layer 1</title>
    <text stroke="#000" fill="#0EA4E9" stroke-width="0" x="205.43667" y="197.234" id="svg_10" font-size="80" font-family="Noto Sans JP" text-anchor="start" xml:space="preserve" font-style="italic" font-weight="bold" transform="matrix(1.03875 0 0 1.12576 -99.7647 -141.536)">VM-Future</text>
   </g>
  </g>
 </g>
</svg>
